<?xml version="1.0" encoding="iso-8859-1"?>
<!-- Generator: Adobe Illustrator 29.0.0, SVG Export Plug-In . SVG Version: 9.03 Build 54978)  -->
<svg version="1.1" xmlns="http://www.w3.org/2000/svg" xmlns:xlink="http://www.w3.org/1999/xlink" x="0px" y="0px"
	 viewBox="0 0 1200 1200" style="enable-background:new 0 0 1200 1200;" xml:space="preserve">
<g id="Layer_2">
	<rect x="-23.551" y="-6.599" style="fill:#B6D7DE;" width="1248.308" height="1213.197"/>
</g>
<g id="Layer_5" style="display:none;">
	<rect x="-128.288" y="-75.457" style="display:inline;fill:#F57369;" width="1416.409" height="1282.551"/>
</g>
<g id="Layer_6" style="display:none;">
	<rect x="-62.915" y="-38.101" style="display:inline;fill:#1D3857;" width="1469.33" height="1313.68"/>
</g>
<g id="Layer_1" style="display:none;">
	<rect x="183.011" y="238.955" style="display:inline;fill:none;" width="812.49" height="787.586"/>
	<g style="display:inline;">
		<path style="fill:#1D3857;" d="M589.099,257.691c59.741,0,113.42,2.631,161.069,7.873c47.625,5.26,95.249,15.741,142.898,31.485
			c47.625,15.744,87.196,36.54,118.677,62.369c31.488,25.846,56.92,60.362,76.298,103.54
			c19.377,43.202,29.063,93.854,29.063,151.983c0,66.21-11.921,122.731-35.727,169.545
			c-23.818,46.832-59.149,83.766-105.964,110.807c-46.832,27.059-100.926,46.436-162.275,58.126
			c-61.361,11.696-133.626,17.562-216.771,17.562c-84.771,0-157.846-6.055-219.195-18.165
			c-61.361-12.11-114.65-31.677-159.851-58.736c-45.224-27.041-78.929-63.768-101.121-110.204
			C93.984,737.465,82.896,681.15,82.896,614.941c0-56.5,9.083-106.153,27.248-148.956c18.165-42.782,42.179-77.087,72.052-102.936
			c29.861-25.829,67.008-46.812,111.416-62.972c44.39-16.14,90.223-27.248,137.452-33.303S530.973,257.691,589.099,257.691z
			 M598.791,772.376c71.029,0,125.336-11.903,162.878-35.727c37.543-23.8,56.311-64.374,56.311-121.708
			c0-31.485-7.261-58.319-21.796-80.531c-14.535-22.195-33.717-38.545-57.523-49.047c-23.824-10.484-47.228-17.958-70.237-22.405
			c-23.014-4.426-47.441-6.658-73.27-6.658c-18.579,0-37.141,1.419-55.708,4.237c-18.579,2.838-37.537,7.873-56.914,15.138
			c-19.377,7.267-36.141,16.557-50.256,27.854c-14.138,11.315-25.852,26.036-35.124,44.201
			c-9.29,18.165-13.926,38.566-13.926,61.157c0,55.708,17.562,96.884,52.68,123.523
			C471.025,759.054,525.314,772.376,598.791,772.376z"/>
	</g>
</g>
<g id="Layer_1_copy">
	<rect x="183.011" y="238.955" style="fill:none;" width="812.49" height="787.586"/>
	<g>
		<path style="fill:#3CA7C2;" d="M589.099,257.691c59.741,0,113.42,2.631,161.069,7.873c47.625,5.26,95.249,15.741,142.898,31.485
			c47.625,15.744,87.196,36.54,118.677,62.369c31.488,25.846,56.92,60.362,76.298,103.54
			c19.377,43.202,29.063,93.854,29.063,151.983c0,66.21-11.921,122.731-35.727,169.545
			c-23.818,46.832-59.149,83.766-105.964,110.807c-46.832,27.059-100.926,46.436-162.275,58.126
			c-61.361,11.696-133.626,17.562-216.771,17.562c-84.771,0-157.846-6.055-219.195-18.165
			c-61.361-12.11-114.65-31.677-159.851-58.736c-45.224-27.041-78.929-63.768-101.121-110.204
			C93.984,737.465,82.896,681.15,82.896,614.941c0-56.5,9.083-106.153,27.248-148.956c18.165-42.782,42.179-77.087,72.052-102.936
			c29.861-25.829,67.008-46.812,111.416-62.972c44.39-16.14,90.223-27.248,137.452-33.303S530.973,257.691,589.099,257.691z
			 M598.791,772.376c71.029,0,125.336-11.903,162.878-35.727c37.543-23.8,56.311-64.374,56.311-121.708
			c0-31.485-7.261-58.319-21.796-80.531c-14.535-22.195-33.717-38.545-57.523-49.047c-23.824-10.484-47.228-17.958-70.237-22.405
			c-23.014-4.426-47.441-6.658-73.27-6.658c-18.579,0-37.141,1.419-55.708,4.237c-18.579,2.838-37.537,7.873-56.914,15.138
			c-19.377,7.267-36.141,16.557-50.256,27.854c-14.138,11.315-25.852,26.036-35.124,44.201
			c-9.29,18.165-13.926,38.566-13.926,61.157c0,55.708,17.562,96.884,52.68,123.523
			C471.025,759.054,525.314,772.376,598.791,772.376z"/>
	</g>
</g>
<g id="Layer_3">
</g>
<g id="Layer_4">
</g>
</svg>
